# xmcd
# Track frame offsets:
# 150
# 12788
# 30109
# 41991
# 58403
# 75095
# 89216
# 101302
# 118464
# 138998
# 152463
# 161747
#
# Disc length: 2358 seconds
# Revision: 0
# Processed by: cddbd v1.5.2PL0 Copyright (c) Steve Scherf et al.
# Submitted via: VisiTrax 2.11.3.279 - For more info visit www.synapsa.com
#
DISCID=9209340c
DTITLE=Melinda Schneider - Family Tree
DYEAR=1900
DGENRE=
TTITLE0=Family Tree
TTITLE1=Sgt. Bean
TTITLE2=Beautiful Thing
TTITLE3=Dream Him Home
TTITLE4=Walk That Wire
TTITLE5=The Healing Power Of Helpless
TTITLE6=I Wanna Be Married
TTITLE7=Real People
TTITLE8=Goodby House
TTITLE9=The L Word
TTITLE10=Spaghetti Is Ready
TTITLE11=What Was I Thinking
EXTD=
EXTT0=
EXTT1=
EXTT2=
EXTT3=
EXTT4=
EXTT5=
EXTT6=
EXTT7=
EXTT8=
EXTT9=
EXTT10=
EXTT11=
PLAYORDER=
